<svg width="312" height="72" viewBox="0 0 312 72" fill="none" xmlns="http://www.w3.org/2000/svg">
<path d="M184 40C184 33.3726 189.373 28 196 28" stroke="#171D3E" stroke-width="8" stroke-linecap="round"/>
<path d="M68 52C68 54.2091 66.2091 56 64 56C61.7909 56 60 54.2091 60 52L60 28C60 25.7909 61.7909 24 64 24C66.2091 24 68 25.7909 68 28L68 52Z" fill="#171D3E"/>
<path d="M240 52C240 54.2091 238.209 56 236 56C233.791 56 232 54.2091 232 52L232 28C232 25.7909 233.791 24 236 24C238.209 24 240 25.7909 240 28L240 52Z" fill="#171D3E"/>
<path d="M80 52C80 54.2091 78.2091 56 76 56C73.7909 56 72 54.2091 72 52L72 12C72 9.79086 73.7909 8 76 8C78.2091 8 80 9.79087 80 12L80 52Z" fill="#171D3E"/>
<path d="M252 28C252 25.7909 250.209 24 248 24C245.791 24 244 25.7909 244 28L244 68C244 70.2091 245.791 72 248 72C250.209 72 252 70.2091 252 68L252 28Z" fill="#171D3E"/>
<path d="M116 52C116 54.2091 114.209 56 112 56C109.791 56 108 54.2091 108 52L108 12C108 9.79086 109.791 8 112 8C114.209 8 116 9.79087 116 12L116 52Z" fill="#171D3E"/>
<path d="M288 28C288 25.7909 286.209 24 284 24C281.791 24 280 25.7909 280 28L280 68C280 70.2091 281.791 72 284 72C286.209 72 288 70.2091 288 68L288 28Z" fill="#171D3E"/>
<path d="M180 52C180 54.2091 181.791 56 184 56C186.209 56 188 54.2091 188 52L188 28C188 25.7909 186.209 24 184 24C181.791 24 180 25.7909 180 28L180 52Z" fill="#171D3E"/>
<path fill-rule="evenodd" clip-rule="evenodd" d="M52 56C60.8366 56 68 48.8366 68 40C68 31.1634 60.8366 24 52 24C43.1634 24 36 31.1634 36 40C36 48.8366 43.1634 56 52 56ZM52 48C56.4183 48 60 44.4183 60 40C60 35.5817 56.4183 32 52 32C47.5817 32 44 35.5817 44 40C44 44.4183 47.5817 48 52 48Z" fill="#171D3E"/>
<path fill-rule="evenodd" clip-rule="evenodd" d="M224 56C232.837 56 240 48.8366 240 40C240 31.1634 232.837 24 224 24C215.163 24 208 31.1634 208 40C208 48.8366 215.163 56 224 56ZM224 48C228.418 48 232 44.4183 232 40C232 35.5817 228.418 32 224 32C219.582 32 216 35.5817 216 40C216 44.4183 219.582 48 224 48Z" fill="#171D3E"/>
<path fill-rule="evenodd" clip-rule="evenodd" d="M88 56C96.8366 56 104 48.8366 104 40C104 31.1634 96.8366 24 88 24C79.1634 24 72 31.1634 72 40C72 48.8366 79.1634 56 88 56ZM88 48C92.4183 48 96 44.4183 96 40C96 35.5817 92.4183 32 88 32C83.5817 32 80 35.5817 80 40C80 44.4183 83.5817 48 88 48Z" fill="#171D3E"/>
<path fill-rule="evenodd" clip-rule="evenodd" d="M260 24C268.837 24 276 31.1634 276 40C276 48.8366 268.837 56 260 56C251.163 56 244 48.8366 244 40C244 31.1634 251.163 24 260 24ZM260 32C264.418 32 268 35.5817 268 40C268 44.4183 264.418 48 260 48C255.582 48 252 44.4183 252 40C252 35.5817 255.582 32 260 32Z" fill="#171D3E"/>
<path fill-rule="evenodd" clip-rule="evenodd" d="M124 56C132.837 56 140 48.8366 140 40C140 31.1634 132.837 24 124 24C115.163 24 108 31.1634 108 40C108 48.8366 115.163 56 124 56ZM124 48C128.418 48 132 44.4183 132 40C132 35.5817 128.418 32 124 32C119.582 32 116 35.5817 116 40C116 44.4183 119.582 48 124 48Z" fill="#171D3E"/>
<path fill-rule="evenodd" clip-rule="evenodd" d="M296 24C304.837 24 312 31.1634 312 40C312 48.8366 304.837 56 296 56C287.163 56 280 48.8366 280 40C280 31.1634 287.163 24 296 24ZM296 32C300.418 32 304 35.5817 304 40C304 44.4183 300.418 48 296 48C291.582 48 288 44.4183 288 40C288 35.5817 291.582 32 296 32Z" fill="#171D3E"/>
<path fill-rule="evenodd" clip-rule="evenodd" d="M160 56C168.837 56 176 48.8366 176 40C176 31.1634 168.837 24 160 24C151.163 24 144 31.1634 144 40C144 48.8366 151.163 56 160 56ZM160 48C164.418 48 168 44.4183 168 40C168 35.5817 164.418 32 160 32C155.582 32 152 35.5817 152 40C152 44.4183 155.582 48 160 48Z" fill="#171D3E"/>
<circle cx="200" cy="52" r="4" fill="#3CC6E5"/>
<path fill-rule="evenodd" clip-rule="evenodd" d="M24.0003 56.0001H24.0005C28.4187 56.0001 32.0005 52.4183 32.0005 48.0001V41.1683C32.0005 39.6647 29.8929 39.3226 29.4174 40.7492C27.974 45.0793 23.9218 48.0001 19.3574 48.0001H16.0618C16.5418 52.129 19.7862 55.4733 24.0003 56.0001Z" fill="#FF5A26"/>
<path d="M0.388583 1.59212C-0.32684 1.11517 0.0108067 0 0.870637 0H8.00041C12.4187 0 16.0004 3.58172 16.0004 8V46.9377C16.0004 51.5436 19.4301 55.4287 24.0004 56H17.0004C9.82071 56 4.00041 50.1797 4.00041 43V8.34087C4.00041 5.62894 2.64505 3.09643 0.388583 1.59212Z" fill="#3CC6E5"/>
</svg>
