<svg xmlns="http://www.w3.org/2000/svg" viewBox="0 0 150.87 34.82"><defs><style>.cls-1{fill:none;stroke:#171d3e;stroke-linecap:round;stroke-width:8px;}.cls-2,.cls-3{fill:#171d3e;}.cls-3,.cls-5{fill-rule:evenodd;}.cls-4{fill:#3cc6e5;}.cls-5{fill:#ff5a26;}</style></defs><title>logoMenu</title><g id="Capa_2" data-name="Capa 2"><g id="Capa_1-2" data-name="Capa 1"><path class="cls-1" d="M89,19.34a5.8,5.8,0,0,1,5.8-5.8"/><path class="cls-2" d="M32.88,25.14a1.94,1.94,0,1,1-3.87,0V13.54a1.94,1.94,0,0,1,3.87,0Z"/><path class="cls-2" d="M116.05,25.14a1.94,1.94,0,1,1-3.87,0V13.54a1.94,1.94,0,0,1,3.87,0Z"/><path class="cls-2" d="M38.68,25.14a1.93,1.93,0,1,1-3.86,0V5.8a1.93,1.93,0,0,1,3.86,0Z"/><path class="cls-2" d="M121.85,13.54a1.93,1.93,0,1,0-3.86,0V32.88a1.93,1.93,0,1,0,3.86,0Z"/><path class="cls-2" d="M56.09,25.14a1.94,1.94,0,1,1-3.87,0V5.8a1.94,1.94,0,0,1,3.87,0Z"/><path class="cls-2" d="M139.26,13.54a1.94,1.94,0,0,0-3.87,0V32.88a1.94,1.94,0,1,0,3.87,0Z"/><path class="cls-2" d="M87,25.14a1.94,1.94,0,1,0,3.87,0V13.54a1.94,1.94,0,0,0-3.87,0Z"/><path class="cls-3" d="M25.14,27.08a7.74,7.74,0,1,0-7.73-7.74A7.74,7.74,0,0,0,25.14,27.08Zm0-3.87a3.87,3.87,0,1,0-3.86-3.87A3.87,3.87,0,0,0,25.14,23.21Z"/><path class="cls-3" d="M108.31,27.08a7.74,7.74,0,1,0-7.73-7.74A7.74,7.74,0,0,0,108.31,27.08Zm0-3.87a3.87,3.87,0,1,0-3.86-3.87A3.87,3.87,0,0,0,108.31,23.21Z"/><path class="cls-3" d="M42.55,27.08a7.74,7.74,0,1,0-7.73-7.74A7.75,7.75,0,0,0,42.55,27.08Zm0-3.87a3.87,3.87,0,1,0-3.87-3.87A3.87,3.87,0,0,0,42.55,23.21Z"/><path class="cls-3" d="M125.72,11.61A7.74,7.74,0,1,1,118,19.34,7.74,7.74,0,0,1,125.72,11.61Zm0,3.86a3.87,3.87,0,1,1-3.87,3.87A3.87,3.87,0,0,1,125.72,15.47Z"/><path class="cls-3" d="M60,27.08a7.74,7.74,0,1,0-7.74-7.74A7.75,7.75,0,0,0,60,27.08Zm0-3.87a3.87,3.87,0,1,0-3.87-3.87A3.87,3.87,0,0,0,60,23.21Z"/><path class="cls-3" d="M143.13,11.61a7.74,7.74,0,1,1-7.74,7.73A7.74,7.74,0,0,1,143.13,11.61Zm0,3.86a3.87,3.87,0,1,1-3.87,3.87A3.87,3.87,0,0,1,143.13,15.47Z"/><path class="cls-3" d="M77.37,27.08a7.74,7.74,0,1,0-7.74-7.74A7.74,7.74,0,0,0,77.37,27.08Zm0-3.87a3.87,3.87,0,1,0-3.87-3.87A3.87,3.87,0,0,0,77.37,23.21Z"/><circle class="cls-4" cx="96.71" cy="25.14" r="1.93"/><path class="cls-5" d="M11.61,27.08h0a3.86,3.86,0,0,0,3.86-3.87v-3.3a.64.64,0,0,0-1.25-.21,5.11,5.11,0,0,1-4.86,3.51H7.77A4.42,4.42,0,0,0,11.61,27.08Z"/><path class="cls-4" d="M.19.77A.42.42,0,0,1,.42,0H3.87A3.87,3.87,0,0,1,7.74,3.87V22.7a4.42,4.42,0,0,0,3.87,4.38H8.22a6.29,6.29,0,0,1-6.29-6.29V4A3.92,3.92,0,0,0,.19.77Z"/></g></g></svg>