<svg id="svg" version="1.1" xmlns="http://www.w3.org/2000/svg" xmlns:xlink="http://www.w3.org/1999/xlink" width="400" height="400" viewBox="0, 0, 400,400"><g id="svgg"><path id="path0" d="M138.003 36.426 C 137.607 37.289,129.332 51.718,50.175 189.551 C 12.763 254.694,10.693 258.203,9.671 258.203 C 8.174 258.203,8.266 258.548,11.078 263.446 C 12.444 265.826,14.495 269.443,15.636 271.484 C 16.776 273.525,18.800 277.129,20.133 279.492 C 21.467 281.855,24.629 287.480,27.160 291.992 C 29.692 296.504,33.205 302.744,34.968 305.859 C 36.731 308.975,43.416 320.840,49.824 332.227 C 68.392 365.223,68.925 366.153,69.336 366.267 C 69.551 366.327,72.793 361.065,76.541 354.575 C 86.808 336.794,136.878 250.314,139.237 246.289 C 141.256 242.842,154.150 220.553,161.043 208.594 C 162.962 205.264,165.202 201.396,166.020 200.000 C 167.741 197.063,181.008 174.188,192.245 154.783 L 199.993 141.403 170.826 91.112 C 154.785 63.451,140.972 39.634,140.132 38.184 C 138.380 35.160,138.528 35.282,138.003 36.426 " stroke="none" fill="#4c9e66" fill-rule="evenodd"></path><path id="path1" d="M137.622 33.496 C 137.714 33.657,151.737 57.868,168.783 87.298 C 185.830 116.728,199.777 141.118,199.777 141.498 C 199.777 141.877,199.891 142.188,200.031 142.188 C 200.242 142.187,203.771 147.865,204.246 148.968 C 204.325 149.152,214.145 166.115,226.068 186.663 C 237.991 207.211,248.088 224.639,248.505 225.391 C 248.923 226.143,253.342 233.789,258.325 242.383 L 267.386 258.008 329.631 258.107 L 391.875 258.206 391.136 256.935 C 390.729 256.236,361.678 205.610,326.578 144.434 L 262.760 33.203 200.107 33.203 C 165.648 33.203,137.529 33.335,137.622 33.496 " stroke="none" fill="#f9d164" fill-rule="evenodd"></path><path id="path2" d="M116.621 285.292 C 108.038 300.149,94.136 324.170,85.727 338.672 C 77.318 353.174,70.228 365.435,69.971 365.918 L 69.504 366.797 200.093 366.797 L 330.683 366.797 335.037 359.082 C 344.998 341.430,351.484 329.921,354.686 324.219 C 356.556 320.889,365.597 304.834,374.778 288.541 C 383.959 272.249,391.395 258.843,391.303 258.750 C 391.210 258.658,390.332 259.031,389.351 259.579 L 387.568 260.576 260.516 260.464 C 167.982 260.382,133.424 260.234,133.319 259.919 C 132.573 257.679,132.572 257.681,116.621 285.292 " stroke="none" fill="#5184e5" fill-rule="evenodd"></path><path id="path3" d="M135.938 35.631 C 132.989 40.848,130.789 44.698,125.605 53.711 C 120.561 62.479,109.074 82.488,107.328 85.547 C 106.898 86.299,103.818 91.660,100.482 97.461 C 97.146 103.262,94.021 108.711,93.537 109.570 C 93.053 110.430,89.980 115.791,86.707 121.484 C 77.780 137.013,67.746 154.509,61.615 165.234 C 58.606 170.498,53.208 179.902,49.618 186.133 C 46.028 192.363,38.202 205.986,32.226 216.406 C 26.250 226.826,18.401 240.488,14.782 246.766 C 7.207 259.909,7.865 258.476,9.495 258.286 C 10.772 258.137,11.235 257.354,50.194 189.517 C 129.255 51.851,137.607 37.289,137.998 36.438 C 138.217 35.961,138.546 35.664,138.730 35.778 C 138.913 35.891,138.695 35.359,138.243 34.594 C 137.247 32.906,137.557 32.766,135.938 35.631 M298.957 258.496 C 316.107 258.552,344.056 258.552,361.066 258.496 C 378.075 258.440,364.043 258.394,329.883 258.394 C 295.723 258.394,281.806 258.440,298.957 258.496 " stroke="none" fill="#69b486" fill-rule="evenodd"></path><path id="path4" d="M132.873 259.158 C 133.471 260.468,125.544 260.389,265.149 260.475 L 387.524 260.551 389.172 259.670 L 390.820 258.789 321.680 258.553 C 283.652 258.424,225.516 258.292,192.489 258.260 L 132.439 258.203 132.873 259.158 " stroke="none" fill="#739feb" fill-rule="evenodd"></path></g></svg>