<?xml version="1.0" encoding="UTF-8"?>
<svg xmlns="http://www.w3.org/2000/svg" xmlns:xlink="http://www.w3.org/1999/xlink" width="15pt" height="15pt" viewBox="0 0 15 15" version="1.1">
<g id="surface1">
<path style=" stroke:none;fill-rule:evenodd;fill:rgb(29.803922%,61.960784%,40%);fill-opacity:1;" d="M 5.175781 1.367188 C 5.160156 1.398438 4.851562 1.9375 1.882812 7.109375 C 0.480469 9.550781 0.402344 9.683594 0.363281 9.683594 C 0.304688 9.683594 0.308594 9.695312 0.414062 9.878906 C 0.464844 9.96875 0.542969 10.105469 0.585938 10.179688 C 0.628906 10.257812 0.703125 10.390625 0.753906 10.480469 C 0.804688 10.570312 0.921875 10.78125 1.019531 10.949219 C 1.113281 11.117188 1.246094 11.351562 1.3125 11.46875 C 1.378906 11.585938 1.628906 12.03125 1.867188 12.457031 C 2.566406 13.695312 2.585938 13.730469 2.601562 13.734375 C 2.609375 13.738281 2.730469 13.539062 2.871094 13.296875 C 3.253906 12.628906 5.132812 9.386719 5.222656 9.234375 C 5.296875 9.105469 5.78125 8.269531 6.039062 7.824219 C 6.109375 7.699219 6.195312 7.550781 6.226562 7.5 C 6.289062 7.390625 6.789062 6.53125 7.210938 5.804688 L 7.5 5.300781 L 6.40625 3.417969 C 5.804688 2.378906 5.285156 1.484375 5.253906 1.433594 C 5.1875 1.320312 5.195312 1.324219 5.175781 1.367188 "/>
<path style=" stroke:none;fill-rule:evenodd;fill:rgb(97.647059%,81.960784%,39.215686%);fill-opacity:1;" d="M 5.160156 1.257812 C 5.164062 1.261719 5.691406 2.171875 6.328125 3.273438 C 6.96875 4.378906 7.492188 5.292969 7.492188 5.304688 C 7.492188 5.320312 7.496094 5.332031 7.5 5.332031 C 7.507812 5.332031 7.640625 5.546875 7.660156 5.585938 C 7.664062 5.59375 8.03125 6.230469 8.476562 7 C 8.925781 7.769531 9.304688 8.425781 9.320312 8.453125 C 9.335938 8.480469 9.5 8.765625 9.6875 9.089844 L 10.027344 9.675781 L 12.359375 9.679688 L 14.695312 9.683594 L 14.667969 9.636719 C 14.652344 9.609375 13.5625 7.710938 12.246094 5.417969 L 9.851562 1.246094 L 7.503906 1.246094 C 6.210938 1.246094 5.15625 1.25 5.160156 1.257812 "/>
<path style=" stroke:none;fill-rule:evenodd;fill:rgb(31.764706%,51.764706%,89.803922%);fill-opacity:1;" d="M 4.375 10.699219 C 4.050781 11.253906 3.53125 12.15625 3.214844 12.699219 C 2.898438 13.242188 2.632812 13.703125 2.625 13.722656 L 2.605469 13.753906 L 12.402344 13.753906 L 12.5625 13.464844 C 12.9375 12.804688 13.179688 12.371094 13.300781 12.160156 C 13.371094 12.035156 13.710938 11.429688 14.054688 10.820312 C 14.398438 10.210938 14.675781 9.707031 14.675781 9.703125 C 14.671875 9.699219 14.636719 9.714844 14.601562 9.734375 L 14.535156 9.773438 L 9.769531 9.765625 C 6.300781 9.765625 5.003906 9.757812 5 9.746094 C 4.972656 9.664062 4.972656 9.664062 4.375 10.699219 "/>
<path style=" stroke:none;fill-rule:evenodd;fill:rgb(41.176471%,70.588235%,52.54902%);fill-opacity:1;" d="M 5.097656 1.335938 C 4.988281 1.53125 4.90625 1.675781 4.710938 2.015625 C 4.519531 2.34375 4.089844 3.09375 4.023438 3.207031 C 4.007812 3.234375 3.894531 3.4375 3.769531 3.65625 C 3.644531 3.871094 3.527344 4.078125 3.507812 4.109375 C 3.488281 4.140625 3.375 4.34375 3.25 4.554688 C 2.917969 5.136719 2.539062 5.792969 2.3125 6.195312 C 2.199219 6.394531 1.996094 6.746094 1.859375 6.980469 C 1.726562 7.214844 1.433594 7.722656 1.207031 8.113281 C 0.984375 8.507812 0.691406 9.019531 0.554688 9.253906 C 0.269531 9.746094 0.296875 9.691406 0.355469 9.6875 C 0.402344 9.679688 0.421875 9.652344 1.882812 7.105469 C 4.847656 1.945312 5.160156 1.398438 5.175781 1.367188 C 5.183594 1.347656 5.195312 1.335938 5.203125 1.339844 C 5.210938 1.347656 5.199219 1.324219 5.183594 1.296875 C 5.148438 1.234375 5.160156 1.230469 5.097656 1.335938 M 11.210938 9.695312 C 11.855469 9.695312 12.902344 9.695312 13.539062 9.695312 C 14.179688 9.691406 13.652344 9.691406 12.371094 9.691406 C 11.089844 9.691406 10.566406 9.691406 11.210938 9.695312 "/>
<path style=" stroke:none;fill-rule:evenodd;fill:rgb(45.098039%,62.352941%,92.156863%);fill-opacity:1;" d="M 4.984375 9.71875 C 5.003906 9.765625 4.707031 9.765625 9.941406 9.769531 L 14.53125 9.769531 L 14.59375 9.738281 L 14.65625 9.703125 L 12.0625 9.695312 C 10.636719 9.691406 8.457031 9.6875 7.21875 9.683594 L 4.964844 9.683594 L 4.984375 9.71875 "/>
</g>
</svg>
