<?xml version="1.0" encoding="UTF-8"?>
<svg xmlns="http://www.w3.org/2000/svg" xmlns:xlink="http://www.w3.org/1999/xlink" width="70pt" height="70pt" viewBox="0 0 70 70" version="1.1">
<g id="surface1">
<path style=" stroke:none;fill-rule:evenodd;fill:rgb(29.803922%,61.960784%,40%);fill-opacity:1;" d="M 24.152344 6.375 C 24.082031 6.527344 22.632812 9.050781 8.78125 33.171875 C 2.234375 44.570312 1.871094 45.183594 1.691406 45.183594 C 1.429688 45.183594 1.445312 45.246094 1.9375 46.101562 C 2.175781 46.519531 2.535156 47.152344 2.734375 47.507812 C 2.9375 47.867188 3.289062 48.496094 3.523438 48.910156 C 3.757812 49.324219 4.308594 50.308594 4.753906 51.097656 C 5.195312 51.886719 5.8125 52.980469 6.121094 53.523438 C 6.429688 54.070312 7.597656 56.148438 8.71875 58.140625 C 11.96875 63.914062 12.0625 64.078125 12.132812 64.097656 C 12.171875 64.105469 12.738281 63.1875 13.394531 62.050781 C 15.191406 58.9375 23.953125 43.804688 24.367188 43.101562 C 24.71875 42.496094 26.976562 38.597656 28.183594 36.503906 C 28.519531 35.921875 28.910156 35.246094 29.054688 35 C 29.355469 34.484375 31.675781 30.484375 33.644531 27.085938 L 35 24.746094 L 29.894531 15.945312 C 27.085938 11.105469 24.671875 6.9375 24.523438 6.683594 C 24.214844 6.152344 24.242188 6.175781 24.152344 6.375 "/>
<path style=" stroke:none;fill-rule:evenodd;fill:rgb(97.647059%,81.960784%,39.215686%);fill-opacity:1;" d="M 24.082031 5.863281 C 24.101562 5.890625 26.554688 10.125 29.535156 15.277344 C 32.519531 20.425781 34.960938 24.695312 34.960938 24.761719 C 34.960938 24.828125 34.980469 24.882812 35.003906 24.882812 C 35.042969 24.882812 35.660156 25.875 35.742188 26.070312 C 35.757812 26.101562 37.476562 29.070312 39.5625 32.667969 C 41.648438 36.261719 43.414062 39.3125 43.488281 39.445312 C 43.5625 39.574219 44.335938 40.914062 45.207031 42.417969 L 46.792969 45.152344 L 57.683594 45.167969 L 68.578125 45.1875 L 68.449219 44.964844 C 68.378906 44.839844 63.292969 35.980469 57.152344 25.277344 L 45.984375 5.808594 L 35.019531 5.808594 C 28.988281 5.808594 24.066406 5.832031 24.082031 5.863281 "/>
<path style=" stroke:none;fill-rule:evenodd;fill:rgb(31.764706%,51.764706%,89.803922%);fill-opacity:1;" d="M 20.410156 49.925781 C 18.90625 52.527344 16.472656 56.730469 15.003906 59.269531 C 13.53125 61.804688 12.289062 63.949219 12.246094 64.035156 L 12.164062 64.191406 L 57.871094 64.191406 L 58.632812 62.839844 C 60.375 59.75 61.507812 57.734375 62.070312 56.738281 C 62.398438 56.15625 63.980469 53.347656 65.585938 50.496094 C 67.191406 47.644531 68.492188 45.296875 68.476562 45.28125 C 68.460938 45.265625 68.308594 45.332031 68.136719 45.425781 L 67.824219 45.601562 L 45.589844 45.582031 C 29.398438 45.566406 23.347656 45.539062 23.332031 45.484375 C 23.199219 45.09375 23.199219 45.09375 20.410156 49.925781 "/>
<path style=" stroke:none;fill-rule:evenodd;fill:rgb(41.176471%,70.588235%,52.54902%);fill-opacity:1;" d="M 23.789062 6.234375 C 23.273438 7.148438 22.886719 7.820312 21.980469 9.398438 C 21.097656 10.933594 19.089844 14.433594 18.78125 14.972656 C 18.707031 15.101562 18.167969 16.039062 17.585938 17.054688 C 17 18.070312 16.453125 19.023438 16.367188 19.175781 C 16.285156 19.324219 15.746094 20.261719 15.171875 21.257812 C 13.613281 23.976562 11.855469 27.039062 10.78125 28.914062 C 10.257812 29.835938 9.3125 31.484375 8.683594 32.574219 C 8.054688 33.664062 6.683594 36.046875 5.640625 37.871094 C 4.59375 39.695312 3.21875 42.085938 2.585938 43.183594 C 1.261719 45.484375 1.375 45.234375 1.660156 45.199219 C 1.886719 45.175781 1.964844 45.035156 8.785156 33.164062 C 22.621094 9.074219 24.082031 6.527344 24.148438 6.375 C 24.1875 6.292969 24.246094 6.242188 24.277344 6.261719 C 24.308594 6.28125 24.273438 6.1875 24.191406 6.054688 C 24.019531 5.757812 24.074219 5.734375 23.789062 6.234375 M 52.316406 45.238281 C 55.320312 45.246094 60.210938 45.246094 63.1875 45.238281 C 66.164062 45.226562 63.707031 45.21875 57.730469 45.21875 C 51.75 45.21875 49.316406 45.226562 52.316406 45.238281 "/>
<path style=" stroke:none;fill-rule:evenodd;fill:rgb(45.098039%,62.352941%,92.156863%);fill-opacity:1;" d="M 23.253906 45.351562 C 23.359375 45.582031 21.96875 45.566406 46.402344 45.582031 L 67.816406 45.597656 L 68.105469 45.441406 L 68.394531 45.289062 L 56.292969 45.246094 C 49.640625 45.222656 39.464844 45.199219 33.6875 45.195312 L 23.175781 45.183594 L 23.253906 45.351562 "/>
</g>
</svg>
