<?xml version="1.0" encoding="UTF-8"?>
<svg xmlns="http://www.w3.org/2000/svg" xmlns:xlink="http://www.w3.org/1999/xlink" width="25pt" height="25pt" viewBox="0 0 25 25" version="1.1">
<g id="surface1">
<path style=" stroke:none;fill-rule:evenodd;fill:rgb(29.803922%,61.960784%,40%);fill-opacity:1;" d="M 8.625 2.277344 C 8.601562 2.332031 8.082031 3.230469 3.136719 11.847656 C 0.796875 15.917969 0.667969 16.136719 0.605469 16.136719 C 0.511719 16.136719 0.515625 16.160156 0.691406 16.464844 C 0.777344 16.613281 0.90625 16.839844 0.976562 16.96875 C 1.046875 17.09375 1.175781 17.320312 1.257812 17.46875 C 1.339844 17.617188 1.539062 17.96875 1.699219 18.25 C 1.855469 18.53125 2.074219 18.921875 2.183594 19.117188 C 2.296875 19.3125 2.714844 20.050781 3.113281 20.765625 C 4.273438 22.828125 4.308594 22.882812 4.332031 22.890625 C 4.347656 22.894531 4.550781 22.566406 4.785156 22.160156 C 5.425781 21.050781 8.554688 15.644531 8.703125 15.394531 C 8.828125 15.175781 9.632812 13.785156 10.066406 13.039062 C 10.183594 12.828125 10.324219 12.585938 10.375 12.5 C 10.484375 12.316406 11.3125 10.886719 12.015625 9.675781 L 12.5 8.835938 L 10.675781 5.695312 C 9.675781 3.964844 8.8125 2.476562 8.757812 2.386719 C 8.648438 2.199219 8.65625 2.207031 8.625 2.277344 "/>
<path style=" stroke:none;fill-rule:evenodd;fill:rgb(97.647059%,81.960784%,39.215686%);fill-opacity:1;" d="M 8.601562 2.09375 C 8.605469 2.105469 9.484375 3.617188 10.550781 5.457031 C 11.613281 7.296875 12.484375 8.820312 12.484375 8.84375 C 12.484375 8.867188 12.492188 8.886719 12.5 8.886719 C 12.515625 8.886719 12.734375 9.242188 12.765625 9.308594 C 12.769531 9.320312 13.382812 10.382812 14.128906 11.667969 C 14.875 12.949219 15.503906 14.039062 15.53125 14.085938 C 15.558594 14.132812 15.832031 14.613281 16.144531 15.148438 L 16.710938 16.125 L 20.601562 16.132812 L 24.492188 16.136719 L 24.445312 16.058594 C 24.421875 16.015625 22.605469 12.851562 20.410156 9.027344 L 16.421875 2.074219 L 12.507812 2.074219 C 10.351562 2.074219 8.59375 2.082031 8.601562 2.09375 "/>
<path style=" stroke:none;fill-rule:evenodd;fill:rgb(31.764706%,51.764706%,89.803922%);fill-opacity:1;" d="M 7.289062 17.832031 C 6.753906 18.757812 5.882812 20.261719 5.359375 21.167969 C 4.832031 22.074219 4.390625 22.839844 4.375 22.871094 L 4.34375 22.925781 L 20.667969 22.925781 L 20.941406 22.441406 C 21.5625 21.339844 21.96875 20.621094 22.167969 20.265625 C 22.285156 20.054688 22.851562 19.050781 23.421875 18.035156 C 23.996094 17.015625 24.460938 16.175781 24.457031 16.171875 C 24.449219 16.167969 24.394531 16.1875 24.335938 16.222656 L 24.222656 16.285156 L 16.28125 16.277344 C 10.5 16.273438 8.339844 16.265625 8.332031 16.246094 C 8.285156 16.105469 8.285156 16.105469 7.289062 17.832031 "/>
<path style=" stroke:none;fill-rule:evenodd;fill:rgb(41.176471%,70.588235%,52.54902%);fill-opacity:1;" d="M 8.496094 2.226562 C 8.3125 2.554688 8.175781 2.792969 7.851562 3.355469 C 7.535156 3.90625 6.816406 5.15625 6.707031 5.347656 C 6.679688 5.394531 6.488281 5.730469 6.28125 6.089844 C 6.070312 6.453125 5.875 6.792969 5.847656 6.847656 C 5.816406 6.902344 5.625 7.238281 5.417969 7.59375 C 4.859375 8.5625 4.234375 9.65625 3.851562 10.328125 C 3.664062 10.65625 3.324219 11.242188 3.101562 11.632812 C 2.875 12.023438 2.386719 12.875 2.015625 13.523438 C 1.640625 14.175781 1.148438 15.03125 0.925781 15.421875 C 0.449219 16.246094 0.492188 16.15625 0.59375 16.144531 C 0.671875 16.132812 0.703125 16.085938 3.136719 11.84375 C 8.078125 3.242188 8.601562 2.332031 8.625 2.277344 C 8.636719 2.246094 8.660156 2.230469 8.671875 2.234375 C 8.683594 2.242188 8.667969 2.210938 8.640625 2.164062 C 8.578125 2.054688 8.597656 2.046875 8.496094 2.226562 M 18.683594 16.15625 C 19.757812 16.160156 21.503906 16.160156 22.566406 16.15625 C 23.628906 16.152344 22.753906 16.148438 20.617188 16.148438 C 18.484375 16.148438 17.613281 16.152344 18.683594 16.15625 "/>
<path style=" stroke:none;fill-rule:evenodd;fill:rgb(45.098039%,62.352941%,92.156863%);fill-opacity:1;" d="M 8.304688 16.199219 C 8.34375 16.277344 7.847656 16.273438 16.570312 16.28125 L 24.21875 16.285156 L 24.324219 16.230469 L 24.425781 16.175781 L 20.105469 16.160156 C 17.726562 16.152344 14.09375 16.144531 12.03125 16.140625 L 8.277344 16.136719 L 8.304688 16.199219 "/>
</g>
</svg>
