<?xml version="1.0" encoding="UTF-8"?>
<svg xmlns="http://www.w3.org/2000/svg" xmlns:xlink="http://www.w3.org/1999/xlink" width="10pt" height="10pt" viewBox="0 0 10 10" version="1.1">
<g id="surface1">
<path style=" stroke:none;fill-rule:evenodd;fill:rgb(29.803922%,61.960784%,40%);fill-opacity:1;" d="M 3.449219 0.910156 C 3.441406 0.933594 3.234375 1.292969 1.253906 4.738281 C 0.320312 6.367188 0.265625 6.453125 0.242188 6.453125 C 0.203125 6.453125 0.207031 6.464844 0.277344 6.585938 C 0.3125 6.644531 0.363281 6.734375 0.390625 6.785156 C 0.417969 6.839844 0.46875 6.929688 0.503906 6.988281 C 0.535156 7.046875 0.617188 7.1875 0.679688 7.300781 C 0.742188 7.414062 0.832031 7.570312 0.875 7.644531 C 0.917969 7.722656 1.085938 8.019531 1.246094 8.304688 C 1.710938 9.128906 1.722656 9.152344 1.734375 9.15625 C 1.738281 9.15625 1.820312 9.027344 1.914062 8.863281 C 2.171875 8.417969 3.421875 6.257812 3.480469 6.15625 C 3.53125 6.070312 3.855469 5.515625 4.027344 5.214844 C 4.074219 5.132812 4.128906 5.035156 4.152344 5 C 4.195312 4.925781 4.523438 4.355469 4.804688 3.871094 L 5 3.535156 L 4.269531 2.277344 C 3.871094 1.585938 3.523438 0.992188 3.503906 0.953125 C 3.460938 0.878906 3.464844 0.882812 3.449219 0.910156 "/>
<path style=" stroke:none;fill-rule:evenodd;fill:rgb(97.647059%,81.960784%,39.215686%);fill-opacity:1;" d="M 3.441406 0.835938 C 3.441406 0.839844 3.792969 1.445312 4.21875 2.183594 C 4.644531 2.917969 4.996094 3.527344 4.996094 3.539062 C 4.996094 3.546875 4.996094 3.554688 5 3.554688 C 5.007812 3.554688 5.09375 3.695312 5.105469 3.722656 C 5.109375 3.730469 5.355469 4.152344 5.652344 4.667969 C 5.949219 5.179688 6.203125 5.617188 6.210938 5.636719 C 6.222656 5.652344 6.332031 5.84375 6.457031 6.058594 L 6.683594 6.449219 L 8.242188 6.453125 L 9.796875 6.457031 L 9.777344 6.421875 C 9.769531 6.40625 9.042969 5.140625 8.164062 3.609375 L 6.570312 0.828125 L 5.003906 0.828125 C 4.140625 0.828125 3.4375 0.832031 3.441406 0.835938 "/>
<path style=" stroke:none;fill-rule:evenodd;fill:rgb(31.764706%,51.764706%,89.803922%);fill-opacity:1;" d="M 2.914062 7.132812 C 2.699219 7.503906 2.351562 8.105469 2.144531 8.46875 C 1.933594 8.828125 1.753906 9.136719 1.75 9.148438 L 1.738281 9.171875 L 8.265625 9.171875 L 8.375 8.976562 C 8.625 8.535156 8.785156 8.246094 8.867188 8.105469 C 8.914062 8.023438 9.140625 7.621094 9.371094 7.214844 C 9.597656 6.804688 9.785156 6.472656 9.78125 6.46875 C 9.78125 6.464844 9.757812 6.476562 9.734375 6.488281 L 9.6875 6.515625 L 6.511719 6.511719 C 4.199219 6.507812 3.335938 6.503906 3.332031 6.496094 C 3.3125 6.441406 3.3125 6.441406 2.914062 7.132812 "/>
<path style=" stroke:none;fill-rule:evenodd;fill:rgb(41.176471%,70.588235%,52.54902%);fill-opacity:1;" d="M 3.398438 0.890625 C 3.324219 1.019531 3.269531 1.117188 3.140625 1.34375 C 3.015625 1.5625 2.726562 2.0625 2.683594 2.140625 C 2.671875 2.15625 2.59375 2.292969 2.511719 2.4375 C 2.429688 2.582031 2.351562 2.71875 2.339844 2.738281 C 2.328125 2.761719 2.25 2.894531 2.167969 3.035156 C 1.945312 3.425781 1.695312 3.863281 1.539062 4.128906 C 1.464844 4.261719 1.332031 4.496094 1.242188 4.652344 C 1.152344 4.808594 0.953125 5.148438 0.804688 5.410156 C 0.65625 5.671875 0.460938 6.011719 0.371094 6.167969 C 0.179688 6.496094 0.195312 6.460938 0.238281 6.457031 C 0.269531 6.453125 0.28125 6.433594 1.253906 4.738281 C 3.230469 1.296875 3.441406 0.933594 3.449219 0.910156 C 3.457031 0.898438 3.464844 0.890625 3.46875 0.894531 C 3.472656 0.898438 3.46875 0.882812 3.457031 0.863281 C 3.429688 0.824219 3.4375 0.820312 3.398438 0.890625 M 7.472656 6.460938 C 7.902344 6.464844 8.601562 6.464844 9.027344 6.460938 C 9.453125 6.460938 9.101562 6.460938 8.246094 6.460938 C 7.394531 6.460938 7.046875 6.460938 7.472656 6.460938 "/>
<path style=" stroke:none;fill-rule:evenodd;fill:rgb(45.098039%,62.352941%,92.156863%);fill-opacity:1;" d="M 3.320312 6.480469 C 3.335938 6.511719 3.136719 6.507812 6.628906 6.511719 L 9.6875 6.515625 L 9.730469 6.492188 L 9.769531 6.46875 L 8.042969 6.464844 C 7.089844 6.460938 5.636719 6.457031 4.8125 6.457031 L 3.3125 6.453125 L 3.320312 6.480469 "/>
</g>
</svg>
